<svg viewBox="0 0 36 24" xmlns="http://www.w3.org/2000/svg"><path fill="white" d="M33.013 1.768c-.91.271-2.621.942-3.287 2.284-.627 1.262-.213 2.997.164 4 .91-.27 2.625-.941 3.291-2.285.667-1.342.167-3.11-.168-3.999zm-3.996 8.05l-.26-.514c-.068-.137-1.676-3.385-.409-5.936C29.614.817 33.172.133 33.323.105L33.89 0l.26.515c.069.137 1.676 3.384.409 5.936-1.265 2.55-4.824 3.235-4.975 3.263l-.567.105zM7.68 7.986h.01v15.743a7.877 7.877 0 0 1-7.68-7.497H0V.488a7.878 7.878 0 0 1 7.68 7.498zm9.036 0h.009v15.743a7.877 7.877 0 0 1-7.68-7.497h-.01V.488c4.139.1 7.488 3.383 7.68 7.498zm9.035 0h.01v15.743a7.877 7.877 0 0 1-7.68-7.497h-.01V.488a7.878 7.878 0 0 1 7.68 7.498z"></path></svg>
